<?xml version="1.0" encoding="UTF-8"?>
<svg id="Layer_1" xmlns="http://www.w3.org/2000/svg" version="1.1" viewBox="0 0 890.6 90.8">
  <!-- Generator: Adobe Illustrator 29.0.1, SVG Export Plug-In . SVG Version: 2.1.0 Build 192)  -->
  <defs>
    <style>
      .st0 {
        fill: #f8cf4e;
      }

      .st1 {
        fill: none;
        stroke: #231f20;
        stroke-miterlimit: 10;
        stroke-width: 1px;
      }

      .st2 {
        fill: #06214c;
      }

      .st3 {
        fill: #0b101a;
      }
    </style>
  </defs>
  <g>
    <rect class="st0" x="14.1" y="1.4" width="372" height="87.9"/>
    <g>
      <path class="st3" d="M43.6,20.6h8.4l-8.6,40.5h23.1l-2.4,7h-30.7l10.1-47.5Z"/>
      <path class="st3" d="M119.9,39.7l-14.5,16.8c-6.2,7.1-10.1,12.3-20.3,12.3s-13.8-5.6-13.8-12.6,4.5-11.7,15.8-16c6.5-2.6,9.8-5.6,9.8-9.6s-1-4.7-4.4-4.7-5.3,2.9-5.3,5.7,1,5,4,7.8l24.7,28.7h-10.1l-21.7-24.9c-2.5-3.1-4.4-6.5-4.4-10.6,0-7.1,4.6-12.6,13.2-12.6s11.6,5.4,11.6,10.7-3.8,9.9-13.8,14.1c-8.6,3.7-10.9,6.6-10.9,10.5s2.5,6.2,6.8,6.2,7.7-2.3,13.7-9.3l10.6-12.4h9.1Z"/>
      <path class="st3" d="M139.2,27.6h-14.1l1.5-7h36.7l-1.5,7h-14.1l-8.6,40.5h-8.4l8.5-40.5Z"/>
      <path class="st2" d="M191.5,48.1l-4.2,20h-8.4l10.1-47.5h17.3c9,0,14.1,4.6,14.1,12.1s-4,11-10,12.5c2.2,1,5.9,3.4,4.3,11.5-1.1,5.5-2,9.2-1.7,11.4h-8c-.2-2.1.2-5.5,1.4-11.3,1.2-5.7,0-8.6-6-8.6h-9ZM193,41.3h8.5c6.3,0,10.5-2.2,10.5-7.7s-2.4-6.1-7.4-6.1h-8.6l-2.9,13.8Z"/>
      <path class="st2" d="M231.1,52.2c-.1,1-.2,1.6-.2,2.5,0,4.5,1.9,7.7,6.3,7.7s6.1-2.3,7.5-4.8h8.4c-2.1,5.3-6.5,11.2-16.6,11.2s-13.7-5.9-13.7-14.4,5.2-22.3,18.9-22.3,13.5,6.3,13.5,13.2-.3,4.7-.9,6.8h-23.2ZM247.2,46.6c.1-.7.2-1.3.2-1.9,0-3.7-1.7-6.4-6.1-6.4s-7.7,3.1-9.1,8.3h14.9Z"/>
      <path class="st2" d="M288.1,59.4c-.7,3.4-1.5,7.5-1.6,8.7h-7.9c0-1.1.4-3.1.6-4.4-1.8,2.4-4.3,5.2-11.1,5.2s-9.8-4.8-9.8-9c0-9.9,8.9-12.4,16.4-13.2,3.2-.3,6.1-.3,8.1-.4l.3-1.9c.6-2.8.5-6.5-5.1-6.5s-6,2.6-6.9,4.7h-8.3c1.3-5.5,5.2-10.4,15.8-10.4s14.4,3.6,12.5,12.6l-3.2,14.7ZM281.7,51.8c-2.2,0-4.3.1-6.5.4-5.3.7-8.5,2.4-8.5,6.3s1.5,4.1,4.8,4.1c6.8,0,8.9-5.4,10-10.2l.2-.5Z"/>
      <path class="st2" d="M295.7,68.1l10.6-50.2h8.1l-10.6,50.2h-8.1Z"/>
      <path class="st2" d="M316.7,32.8h5.4l2.1-9.7h8l-2.1,9.7h6.9l-1.4,6.3h-6.9l-4,19c-.5,2.5-.3,4,2.5,4s2.1,0,3.2-.2l-1.3,6c-1.9.6-4,.7-5.8.7-6.7,0-8.1-3.7-6.8-9.7l4.1-19.6h-5.4l1.4-6.4Z"/>
      <path class="st2" d="M348.7,32.8c1.6,15.3,2.4,25.1,2.6,28.8h0c1.8-3.9,6-13.2,13.9-28.8h8.5l-19.4,37c-6,11.5-9.7,12.6-16.7,12.6s-3.3-.2-4.4-.5l1.5-6.8c.7.1,1.6.3,3.1.3,4.4,0,5.8-1.8,7.8-5.3l-4.9-37.3h8.1s0,0,0,0Z"/>
    </g>
  </g>
  <g>
    <path class="st2" d="M459.5,70.2h-9.9l-22.5-33.9v33.9h-9.9V20.7h9.9l22.5,34V20.7h9.9v49.5Z"/>
    <path class="st2" d="M479.2,28.7v12.4h16.7v7.9h-16.7v13.1h18.8v8.1h-28.7V20.7h28.7v8.1h-18.8Z"/>
    <path class="st2" d="M573.1,20.7l-13.8,49.5h-11.7l-9.3-35.2-9.7,35.2h-11.6c0,0-13.3-49.5-13.3-49.5h10.6l8.7,38.4,10.1-38.4h11.1l9.5,38.2,8.8-38.2h10.7Z"/>
    <path class="st2" d="M606.3,62.3h16.3v7.9h-26.2V20.7h9.9v41.6Z"/>
    <path class="st2" d="M659.2,60.8h-19.7l-3.3,9.4h-10.4l17.8-49.5h11.5l17.8,49.5h-10.5l-3.3-9.4ZM656.5,52.8l-7.2-20.7-7.2,20.7h14.3Z"/>
    <path class="st2" d="M689.4,20.7v30.6c0,3.4.9,5.9,2.6,7.7,1.7,1.8,4.2,2.7,7.4,2.7s5.7-.9,7.4-2.7c1.7-1.8,2.6-4.3,2.6-7.7v-30.6h10v30.5c0,4.2-.9,7.8-2.7,10.7-1.8,2.9-4.3,5.1-7.3,6.6-3,1.5-6.4,2.2-10.2,2.2s-7-.7-10-2.2c-3-1.5-5.4-3.6-7.1-6.6s-2.6-6.5-2.6-10.7v-30.5h9.9Z"/>
    <path class="st2" d="M771.3,70.2h-9.9l-22.5-33.9v33.9h-9.9V20.7h9.9l22.5,34V20.7h9.9v49.5Z"/>
    <path class="st2" d="M782,32.3c2.2-3.8,5.2-6.8,9-9,3.8-2.1,8.1-3.2,12.8-3.2s10.4,1.4,14.5,4.3c4.2,2.8,7.1,6.8,8.7,11.8h-11.4c-1.1-2.4-2.7-4.1-4.8-5.3-2.1-1.2-4.4-1.8-7.1-1.8s-5.4.7-7.7,2c-2.2,1.3-4,3.2-5.2,5.7-1.3,2.5-1.9,5.3-1.9,8.6s.6,6.1,1.9,8.6c1.3,2.5,3,4.4,5.2,5.7,2.2,1.3,4.8,2,7.7,2s5.1-.6,7.1-1.8c2.1-1.2,3.6-3,4.8-5.3h11.4c-1.7,5.1-4.5,9-8.7,11.8-4.1,2.8-9,4.2-14.6,4.2s-9-1.1-12.8-3.2c-3.8-2.1-6.8-5.1-9-9-2.2-3.8-3.3-8.2-3.3-13s1.1-9.2,3.3-13.1Z"/>
    <path class="st2" d="M876.6,20.7v49.5h-9.9v-21h-21.2v21h-9.9V20.7h9.9v20.3h21.2v-20.3h9.9Z"/>
  </g>
  <line class="st1" x1="402.9" y1="1.4" x2="402.9" y2="89.4"/>
</svg>